<svg width="800" height="800" viewBox="0 0 800 800" fill="none" xmlns="http://www.w3.org/2000/svg">
  <rect width="800" height="800" fill="#F7F7F5"/>
  <rect x="64" y="64" width="672" height="672" rx="32" fill="white" stroke="#111111" stroke-width="16"/>
  <rect x="112" y="112" width="144" height="144" fill="#111111"/>
  <rect x="144" y="144" width="80" height="80" fill="#F7F7F5"/>
  <rect x="544" y="112" width="144" height="144" fill="#111111"/>
  <rect x="576" y="144" width="80" height="80" fill="#F7F7F5"/>
  <rect x="112" y="544" width="144" height="144" fill="#111111"/>
  <rect x="144" y="576" width="80" height="80" fill="#F7F7F5"/>
  <rect x="320" y="128" width="32" height="32" fill="#111111"/>
  <rect x="384" y="128" width="64" height="32" fill="#111111"/>
  <rect x="320" y="192" width="96" height="32" fill="#111111"/>
  <rect x="448" y="192" width="32" height="32" fill="#111111"/>
  <rect x="288" y="288" width="32" height="32" fill="#111111"/>
  <rect x="352" y="288" width="96" height="32" fill="#111111"/>
  <rect x="480" y="288" width="32" height="32" fill="#111111"/>
  <rect x="576" y="304" width="64" height="32" fill="#111111"/>
  <rect x="288" y="352" width="64" height="32" fill="#111111"/>
  <rect x="384" y="352" width="32" height="32" fill="#111111"/>
  <rect x="448" y="352" width="96" height="32" fill="#111111"/>
  <rect x="320" y="416" width="32" height="32" fill="#111111"/>
  <rect x="384" y="416" width="96" height="32" fill="#111111"/>
  <rect x="544" y="416" width="96" height="32" fill="#111111"/>
  <rect x="288" y="480" width="96" height="32" fill="#111111"/>
  <rect x="416" y="480" width="32" height="32" fill="#111111"/>
  <rect x="480" y="480" width="32" height="32" fill="#111111"/>
  <rect x="576" y="480" width="64" height="32" fill="#111111"/>
  <rect x="320" y="544" width="64" height="32" fill="#111111"/>
  <rect x="416" y="544" width="128" height="32" fill="#111111"/>
  <rect x="320" y="608" width="32" height="32" fill="#111111"/>
  <rect x="384" y="608" width="64" height="32" fill="#111111"/>
  <rect x="480" y="608" width="160" height="32" fill="#111111"/>
  <text x="400" y="708" text-anchor="middle" fill="#111111" font-family="Arial, sans-serif" font-size="48" font-weight="700">QRIS</text>
</svg>
